<svg width="26" height="38" xmlns="http://www.w3.org/2000/svg">

 <g>
  <title>Layer 1</title>
  <g id="svg_1" fill-rule="evenodd" fill="none">
   <path id="svg_2" d="m41.64141,20.84533c0,-0.13148 -0.0791,-0.28905 -0.26434,-0.28905l-4.12661,0l0,3.91374l4.12661,0c0.18524,0 0.26434,-0.13148 0.26434,-0.2627l0,-3.36199zm0,-6.93399c0,-0.13148 -0.0791,-0.2888 -0.26434,-0.2888l-4.12661,0l0,3.67714l4.12661,0c0.18524,0 0.26434,-0.13148 0.26434,-0.28931l0,-3.09903zm-8.96765,13.92042l0,-17.72852l11.00455,0c1.45514,0 2.38084,0.91909 2.38084,2.23212l0,3.94009c0,1.20789 -0.79353,2.3636 -2.4334,2.75779c1.63987,0.39368 2.56583,1.49694 2.56583,2.679l0,3.8608c0,1.39181 -0.92596,2.25872 -2.38085,2.25872l-11.13697,0zm25.07974,-10.87869l5.0074,0l0,8.85096c0,1.1557 -0.8989,2.02236 -2.03664,2.02236l-8.94136,0c-1.13748,0 -2.06343,-0.86666 -2.06343,-2.02236l0,-13.71015c0,-1.07692 0.92595,-1.99601 2.06343,-1.99601l10.978,0l0,3.80836l-8.20065,0c-0.13217,0 -0.26434,0.13122 -0.26434,0.28905l0,9.50785c0,0.15732 0.13217,0.26246 0.26434,0.26246l3.70382,0c0.18498,0 0.29087,-0.10514 0.29087,-0.26246l0,-2.9944l-2.40712,0l1.60568,-3.75566zm16.56933,0l5.00766,0l0,8.85096c0,1.1557 -0.89917,2.02236 -2.03664,2.02236l-8.94137,0c-1.13773,0 -2.06343,-0.86666 -2.06343,-2.02236l0,-13.71015c0,-1.07692 0.9257,-1.99601 2.06343,-1.99601l10.97801,0l0,3.80836l-8.20066,0c-0.13217,0 -0.26459,0.13122 -0.26459,0.28905l0,9.50785c0,0.15732 0.13242,0.26246 0.26459,0.26246l3.70357,0c0.18524,0 0.29113,-0.10514 0.29113,-0.26246l0,-2.9944l-2.40738,0l1.60568,-3.75566z" fill="#FFF"/>
   <polygon id="svg_3" points="24.87 7.01 21.107 8.035 24.792 0 .9 8.794 2.206 19.327 0 21.454 6.577 37.93 20.558 32.779 25.418 21.37 23.331 19.358" fill="#FF5100"/>
  </g>
 </g>
</svg>